<svg width="11" height="13" viewBox="0 0 11 13" fill="none" xmlns="http://www.w3.org/2000/svg">
<path fill-rule="evenodd" clip-rule="evenodd" d="M2.375 0.25C2.04348 0.25 1.72554 0.381696 1.49112 0.616116C1.2567 0.850537 1.125 1.16848 1.125 1.5V2.125C0.95924 2.125 0.800269 2.19085 0.683058 2.30806C0.565848 2.42527 0.5 2.58424 0.5 2.75C0.5 2.91576 0.565848 3.07473 0.683058 3.19194C0.800269 3.30915 0.95924 3.375 1.125 3.375V4C0.95924 4 0.800269 4.06585 0.683058 4.18306C0.565848 4.30027 0.5 4.45924 0.5 4.625C0.5 4.79076 0.565848 4.94973 0.683058 5.06694C0.800269 5.18415 0.95924 5.25 1.125 5.25V5.875C0.95924 5.875 0.800269 5.94085 0.683058 6.05806C0.565848 6.17527 0.5 6.33424 0.5 6.5C0.5 6.66576 0.565848 6.82473 0.683058 6.94194C0.800269 7.05915 0.95924 7.125 1.125 7.125V7.75C0.95924 7.75 0.800269 7.81585 0.683058 7.93306C0.565848 8.05027 0.5 8.20924 0.5 8.375C0.5 8.54076 0.565848 8.69973 0.683058 8.81694C0.800269 8.93415 0.95924 9 1.125 9V9.625C0.95924 9.625 0.800269 9.69085 0.683058 9.80806C0.565848 9.92527 0.5 10.0842 0.5 10.25C0.5 10.4158 0.565848 10.5747 0.683058 10.6919C0.800269 10.8092 0.95924 10.875 1.125 10.875V11.5C1.125 11.8315 1.2567 12.1495 1.49112 12.3839C1.72554 12.6183 2.04348 12.75 2.375 12.75H9.25C9.58152 12.75 9.89946 12.6183 10.1339 12.3839C10.3683 12.1495 10.5 11.8315 10.5 11.5V1.5C10.5 1.16848 10.3683 0.850537 10.1339 0.616116C9.89946 0.381696 9.58152 0.25 9.25 0.25H2.375ZM4.25 5.25C4.25 4.75272 4.44754 4.27581 4.79917 3.92417C5.15081 3.57254 5.62772 3.375 6.125 3.375C6.62228 3.375 7.09919 3.57254 7.45083 3.92417C7.80246 4.27581 8 4.75272 8 5.25C8 5.74728 7.80246 6.22419 7.45083 6.57583C7.09919 6.92746 6.62228 7.125 6.125 7.125C5.62772 7.125 5.15081 6.92746 4.79917 6.57583C4.44754 6.22419 4.25 5.74728 4.25 5.25ZM3.625 9.625C3.625 9.12772 3.82254 8.65081 4.17417 8.29917C4.52581 7.94754 5.00272 7.75 5.5 7.75H6.75C7.24728 7.75 7.72419 7.94754 8.07583 8.29917C8.42746 8.65081 8.625 9.12772 8.625 9.625C8.625 9.79076 8.55915 9.94973 8.44194 10.0669C8.32473 10.1842 8.16576 10.25 8 10.25H4.25C4.08424 10.25 3.92527 10.1842 3.80806 10.0669C3.69085 9.94973 3.625 9.79076 3.625 9.625Z" fill="#808080"/>
</svg>
