<svg width="18" height="18" viewBox="0 0 18 18" fill="none" xmlns="http://www.w3.org/2000/svg">
<g clip-path="url(#clip0_444_859)">
<path d="M9.921 16.4438C8.39911 16.6321 6.85606 16.3494 5.49978 15.6338C4.1435 14.9182 3.03918 13.804 2.33564 12.4414C1.6321 11.0788 1.36315 9.5333 1.56504 8.01315C1.76693 6.493 2.42995 5.07126 3.46476 3.93954C4.49957 2.80782 5.85642 2.0205 7.35247 1.68368C8.84853 1.34687 10.4119 1.47674 11.8318 2.05581C13.2518 2.63487 14.4601 3.6353 15.294 4.92226C16.1279 6.20923 16.5472 7.72088 16.4955 9.2535" stroke="black" stroke-width="1.5" stroke-linecap="round" stroke-linejoin="round"/>
<path d="M9 4.5V9L10.1715 9.58575" stroke="black" stroke-width="1.5" stroke-linecap="round" stroke-linejoin="round"/>
<path d="M10.5 13.5L13.5 10.5L16.5 13.5" stroke="black" stroke-width="1.5" stroke-linecap="round" stroke-linejoin="round"/>
<path d="M13.5 16.5V10.5" stroke="black" stroke-width="1.5" stroke-linecap="round" stroke-linejoin="round"/>
</g>
<defs>
<clipPath id="clip0_444_859">
<rect width="18" height="18" fill="white"/>
</clipPath>
</defs>
</svg>
