<svg width="14" height="14" viewBox="0 0 14 14" fill="none" xmlns="http://www.w3.org/2000/svg">
<g clip-path="url(#clip0_425_873)">
<path d="M4.66675 8.16667C6.59974 8.16667 8.16675 6.59966 8.16675 4.66667C8.16675 2.73367 6.59974 1.16667 4.66675 1.16667C2.73375 1.16667 1.16675 2.73367 1.16675 4.66667C1.16675 6.59966 2.73375 8.16667 4.66675 8.16667Z" stroke="black" stroke-width="1.5" stroke-linecap="round" stroke-linejoin="round"/>
<path d="M10.5526 6.04917C11.104 6.25475 11.5947 6.59606 11.9793 7.04153C12.3638 7.48701 12.6299 8.02226 12.7528 8.59779C12.8756 9.17332 12.8514 9.77055 12.6823 10.3342C12.5133 10.8979 12.2048 11.4099 11.7854 11.8228C11.366 12.2357 10.8493 12.5361 10.2831 12.6964C9.7168 12.8566 9.11926 12.8715 8.54572 12.7397C7.97218 12.6078 7.44114 12.3335 7.00172 11.942C6.5623 11.5505 6.22869 11.0546 6.03174 10.5" stroke="black" stroke-width="1.5" stroke-linecap="round" stroke-linejoin="round"/>
<path d="M4.08325 3.5H4.66659V5.83333" stroke="black" stroke-width="1.5" stroke-linecap="round" stroke-linejoin="round"/>
<path d="M9.74741 8.09666L10.1557 8.51083L8.51074 10.1558" stroke="black" stroke-width="1.5" stroke-linecap="round" stroke-linejoin="round"/>
</g>
<defs>
<clipPath id="clip0_425_873">
<rect width="14" height="14" fill="white"/>
</clipPath>
</defs>
</svg>
