<svg width="20" height="20" viewBox="0 0 20 20" fill="none" xmlns="http://www.w3.org/2000/svg">
<path fill-rule="evenodd" clip-rule="evenodd" d="M2.72681 0.833374H17.2733C18.3238 0.833374 19.1667 1.70297 19.1667 2.76686V4.18463C19.1667 4.70129 18.9656 5.19644 18.6068 5.55819L12.4038 11.8474L12.4044 16.6095C12.4044 16.8263 12.2948 17.026 12.1173 17.1432L12.0372 17.1882L7.96437 19.105C7.5402 19.3047 7.05248 18.9952 7.05248 18.5264L7.05221 11.8329L1.3383 5.53239C1.04919 5.21426 0.875099 4.80767 0.839982 4.3788L0.833374 4.21705V2.76686C0.833374 1.70297 1.67629 0.833374 2.72681 0.833374ZM17.2733 2.11239H2.72681C2.39178 2.11239 2.11244 2.40057 2.11244 2.76686V4.21705C2.11244 4.38817 2.17469 4.55094 2.28532 4.67268L8.16574 11.1563C8.27245 11.274 8.33155 11.4271 8.33155 11.5859L8.33128 17.5177L11.1248 16.2037L11.1253 11.5859C11.1253 11.4515 11.1676 11.3214 11.245 11.2134L11.3094 11.1369L17.6973 4.65885C17.8182 4.53691 17.8876 4.36607 17.8876 4.18463V2.76686C17.8876 2.40057 17.6083 2.11239 17.2733 2.11239Z" fill="#2D2D2D"/>
</svg>
