<svg width="20" height="20" viewBox="0 0 20 20" fill="none" xmlns="http://www.w3.org/2000/svg">
<g clip-path="url(#clip0_194_1139)">
<path d="M9.99996 5.83332C11.1506 5.83332 12.0833 4.90058 12.0833 3.74999C12.0833 2.5994 11.1506 1.66666 9.99996 1.66666C8.84937 1.66666 7.91663 2.5994 7.91663 3.74999C7.91663 4.90058 8.84937 5.83332 9.99996 5.83332Z" stroke="black" stroke-width="1.5" stroke-linecap="round" stroke-linejoin="round"/>
<path d="M8.5 5.25L5.25 8.5" stroke="black" stroke-width="1.5" stroke-linecap="round" stroke-linejoin="round"/>
<path d="M3.74996 12.0833C4.90055 12.0833 5.83329 11.1506 5.83329 9.99999C5.83329 8.8494 4.90055 7.91666 3.74996 7.91666C2.59937 7.91666 1.66663 8.8494 1.66663 9.99999C1.66663 11.1506 2.59937 12.0833 3.74996 12.0833Z" stroke="black" stroke-width="1.5" stroke-linecap="round" stroke-linejoin="round"/>
<path d="M5.83337 10H14.1667" stroke="black" stroke-width="1.5" stroke-linecap="round" stroke-linejoin="round"/>
<path d="M16.25 12.0833C17.4006 12.0833 18.3333 11.1506 18.3333 9.99999C18.3333 8.8494 17.4006 7.91666 16.25 7.91666C15.0994 7.91666 14.1666 8.8494 14.1666 9.99999C14.1666 11.1506 15.0994 12.0833 16.25 12.0833Z" stroke="black" stroke-width="1.5" stroke-linecap="round" stroke-linejoin="round"/>
<path d="M11.5 14.75L14.75 11.5" stroke="black" stroke-width="1.5" stroke-linecap="round" stroke-linejoin="round"/>
<path d="M9.99996 18.3333C11.1506 18.3333 12.0833 17.4006 12.0833 16.25C12.0833 15.0994 11.1506 14.1667 9.99996 14.1667C8.84937 14.1667 7.91663 15.0994 7.91663 16.25C7.91663 17.4006 8.84937 18.3333 9.99996 18.3333Z" stroke="black" stroke-width="1.5" stroke-linecap="round" stroke-linejoin="round"/>
</g>
<defs>
<clipPath id="clip0_194_1139">
<rect width="20" height="20" fill="white"/>
</clipPath>
</defs>
</svg>
