<svg width="22" height="22" viewBox="0 0 22 22" fill="none" xmlns="http://www.w3.org/2000/svg">
<path d="M11 20.8633C10.0008 20.8633 9.0108 20.57 8.23164 19.9925L4.28997 17.05C3.24497 16.2708 2.42914 14.6483 2.42914 13.3467V6.52667C2.42914 5.11501 3.46497 3.61167 4.79414 3.11667L9.3683 1.40251C10.2758 1.06334 11.7058 1.06334 12.6133 1.40251L17.1966 3.11667C18.5258 3.61167 19.5616 5.11501 19.5616 6.52667V13.3375C19.5616 14.6392 18.7458 16.2617 17.7008 17.0408L13.7591 19.9833C12.9891 20.57 11.9991 20.8633 11 20.8633ZM9.85414 2.69501L5.27997 4.40917C4.49164 4.70251 3.80414 5.69251 3.80414 6.53584V13.3467C3.80414 14.2175 4.4183 15.4367 5.1058 15.95L9.04747 18.8925C10.1016 19.6808 11.8891 19.6808 12.9433 18.8925L16.885 15.95C17.5816 15.4275 18.1866 14.2083 18.1866 13.3467V6.52667C18.1866 5.69251 17.4991 4.70251 16.7108 4.40001L12.1366 2.68584C11.5316 2.46584 10.4683 2.46584 9.85414 2.69501Z" fill="#292D32"/>
<path d="M11 12.1458C9.60669 12.1458 8.47919 11.0183 8.47919 9.62501C8.47919 8.23167 9.60669 7.10417 11 7.10417C12.3934 7.10417 13.5209 8.23167 13.5209 9.62501C13.5209 11.0183 12.3934 12.1458 11 12.1458ZM11 8.47917C10.3675 8.47917 9.85419 8.9925 9.85419 9.62501C9.85419 10.2575 10.3675 10.7708 11 10.7708C11.6325 10.7708 12.1459 10.2575 12.1459 9.62501C12.1459 8.9925 11.6325 8.47917 11 8.47917Z" fill="#292D32"/>
<path d="M11 14.8958C10.6242 14.8958 10.3125 14.5842 10.3125 14.2083V11.4583C10.3125 11.0825 10.6242 10.7708 11 10.7708C11.3758 10.7708 11.6875 11.0825 11.6875 11.4583V14.2083C11.6875 14.5842 11.3758 14.8958 11 14.8958Z" fill="#292D32"/>
</svg>
