<svg width="20" height="20" viewBox="0 0 20 20" fill="none" xmlns="http://www.w3.org/2000/svg">
<g clip-path="url(#clip0_194_1125)">
<path d="M12.5 18.3333C12.2789 18.3333 12.067 18.2455 11.9107 18.0892C11.7544 17.933 11.6666 17.721 11.6666 17.5V14.1667C11.6666 14.0295 11.7004 13.8945 11.7651 13.7735C11.8298 13.6526 11.9234 13.5494 12.0375 13.4733L14.5375 11.8067C14.6744 11.7153 14.8353 11.6665 15 11.6665C15.1646 11.6665 15.3255 11.7153 15.4625 11.8067L17.9625 13.4733C18.0766 13.5494 18.1701 13.6526 18.2348 13.7735C18.2995 13.8945 18.3333 14.0295 18.3333 14.1667V17.5C18.3333 17.721 18.2455 17.933 18.0892 18.0892C17.9329 18.2455 17.721 18.3333 17.5 18.3333H12.5Z" stroke="black" stroke-width="1.5" stroke-linecap="round" stroke-linejoin="round"/>
<path d="M15 8.33334C15 6.56523 14.2976 4.86954 13.0473 3.61929C11.7971 2.36905 10.1014 1.66667 8.33329 1.66667C6.56518 1.66667 4.86949 2.36905 3.61925 3.61929C2.36901 4.86954 1.66663 6.56523 1.66663 8.33334C1.66663 12.4942 6.28246 16.8275 7.83246 18.1658C7.97693 18.2742 8.1527 18.3327 8.33329 18.3325" stroke="black" stroke-width="1.5" stroke-linecap="round" stroke-linejoin="round"/>
<path d="M15 18.3333V15.8333" stroke="black" stroke-width="1.5" stroke-linecap="round" stroke-linejoin="round"/>
<path d="M8.33337 10.8333C9.71409 10.8333 10.8334 9.71404 10.8334 8.33333C10.8334 6.95262 9.71409 5.83333 8.33337 5.83333C6.95266 5.83333 5.83337 6.95262 5.83337 8.33333C5.83337 9.71404 6.95266 10.8333 8.33337 10.8333Z" stroke="black" stroke-width="1.5" stroke-linecap="round" stroke-linejoin="round"/>
</g>
<defs>
<clipPath id="clip0_194_1125">
<rect width="20" height="20" fill="white"/>
</clipPath>
</defs>
</svg>
