<svg width="30" height="30" viewBox="0 0 30 30" fill="none" xmlns="http://www.w3.org/2000/svg">
<path fill-rule="evenodd" clip-rule="evenodd" d="M4.43756 16.3701C4.90131 16.8339 5.65319 16.8339 6.11694 16.3701L10.5806 11.9065L18.0936 19.4194L13.6299 23.8831C13.1662 24.3468 13.1662 25.0987 13.6299 25.5625L15.0441 26.9767C15.5079 27.4404 16.2598 27.4404 16.7235 26.9767L17.6516 26.0486L18.5797 26.9767C19.0434 27.4404 19.7953 27.4404 20.259 26.9767L21.1871 26.0486L22.1152 26.9767C22.5789 27.4404 23.3308 27.4404 23.7946 26.9767L26.9766 23.7947C27.4403 23.331 27.4403 22.5791 26.9766 22.1153L26.0485 21.1872L26.9766 20.2592C27.4403 19.7954 27.4403 19.0435 26.9766 18.5798L26.0485 17.6517L26.9766 16.7236C27.4403 16.2599 27.4403 15.508 26.9766 15.0443L25.5623 13.63C25.0986 13.1663 24.3467 13.1663 23.883 13.63L19.4194 18.0936L11.9064 10.5806L16.37 6.11706C16.8337 5.65331 16.8337 4.90143 16.37 4.43768L14.9558 3.02347C14.492 2.55972 13.7401 2.55972 13.2764 3.02347L12.3483 3.95155L11.4202 3.02347C10.9565 2.55972 10.2046 2.55972 9.74086 3.02347L8.81278 3.95155L7.88471 3.02347C7.42096 2.55972 6.66908 2.55972 6.20533 3.02347L3.02335 6.20545C2.5596 6.6692 2.5596 7.42108 3.02335 7.88483L3.95143 8.81291L3.02335 9.74098C2.5596 10.2047 2.5596 10.9566 3.02335 11.4204L3.95143 12.3484L3.02335 13.2765C2.5596 13.7403 2.5596 14.4922 3.02335 14.9559L4.43756 16.3701ZM5.27725 14.5581L4.83531 14.1162L5.76339 13.1881C6.22713 12.7244 6.22713 11.9725 5.76339 11.5088L4.83531 10.5807L5.76339 9.6526C6.22713 9.18885 6.22713 8.43696 5.76339 7.97322L4.83531 7.04514L7.04502 4.83543L7.9731 5.76351C8.43684 6.22726 9.18873 6.22726 9.65247 5.76351L10.5806 4.83543L11.5086 5.76351C11.9724 6.22726 12.7243 6.22726 13.188 5.76351L14.1161 4.83543L14.558 5.27737L5.27725 14.5581ZM15.4419 24.7228L15.8838 25.1647L16.8119 24.2366C17.2756 23.7729 18.0275 23.7729 18.4913 24.2366L19.4194 25.1647L20.3474 24.2366C20.8112 23.7729 21.5631 23.7729 22.0268 24.2366L22.9549 25.1647L25.1646 22.955L24.2365 22.0269C23.7728 21.5632 23.7728 20.8113 24.2365 20.3476L25.1646 19.4195L24.2365 18.4914C23.7728 18.0277 23.7728 17.2758 24.2365 16.812L25.1646 15.8839L24.7227 15.442L15.4419 24.7228Z" fill="#828282"/>
</svg>
