<svg width="22" height="22" viewBox="0 0 22 22" fill="none" xmlns="http://www.w3.org/2000/svg">
<path d="M11 20.8542C5.56415 20.8542 1.14581 16.4358 1.14581 11C1.14581 5.56416 5.56415 1.14583 11 1.14583C16.4358 1.14583 20.8541 5.56416 20.8541 11C20.8541 16.4358 16.4358 20.8542 11 20.8542ZM11 2.52083C6.32498 2.52083 2.52081 6.325 2.52081 11C2.52081 15.675 6.32498 19.4792 11 19.4792C15.675 19.4792 19.4791 15.675 19.4791 11C19.4791 6.325 15.675 2.52083 11 2.52083Z" fill="#292D32"/>
<path d="M11 12.6042C10.6242 12.6042 10.3125 12.2925 10.3125 11.9167V7.33333C10.3125 6.95749 10.6242 6.64583 11 6.64583C11.3758 6.64583 11.6875 6.95749 11.6875 7.33333V11.9167C11.6875 12.2925 11.3758 12.6042 11 12.6042Z" fill="#292D32"/>
<path d="M11 15.5833C10.8808 15.5833 10.7616 15.5558 10.6516 15.51C10.5416 15.4642 10.4408 15.4 10.3491 15.3175C10.2666 15.2258 10.2025 15.1342 10.1566 15.015C10.1108 14.905 10.0833 14.7858 10.0833 14.6667C10.0833 14.5475 10.1108 14.4283 10.1566 14.3183C10.2025 14.2083 10.2666 14.1075 10.3491 14.0158C10.4408 13.9333 10.5416 13.8692 10.6516 13.8233C10.8716 13.7317 11.1283 13.7317 11.3483 13.8233C11.4583 13.8692 11.5591 13.9333 11.6508 14.0158C11.7333 14.1075 11.7975 14.2083 11.8433 14.3183C11.8891 14.4283 11.9166 14.5475 11.9166 14.6667C11.9166 14.7858 11.8891 14.905 11.8433 15.015C11.7975 15.1342 11.7333 15.2258 11.6508 15.3175C11.5591 15.4 11.4583 15.4642 11.3483 15.51C11.2383 15.5558 11.1191 15.5833 11 15.5833Z" fill="#292D32"/>
</svg>
