<svg width="34" height="34" viewBox="0 0 34 34" fill="none" xmlns="http://www.w3.org/2000/svg">
<path d="M28.3334 18.4167C28.3334 25.5 23.3751 29.0417 17.4817 31.0958C17.1731 31.2004 16.8379 31.1954 16.5326 31.0817C10.6251 29.0417 5.66675 25.5 5.66675 18.4167V8.5C5.66675 8.12428 5.816 7.76394 6.08168 7.49826C6.34736 7.23259 6.70769 7.08333 7.08341 7.08333C9.91675 7.08333 13.4584 5.38333 15.9234 3.23C16.2235 2.97358 16.6053 2.8327 17.0001 2.8327C17.3948 2.8327 17.7766 2.97358 18.0767 3.23C20.5559 5.3975 24.0834 7.08333 26.9167 7.08333C27.2925 7.08333 27.6528 7.23259 27.9185 7.49826C28.1842 7.76394 28.3334 8.12428 28.3334 8.5V18.4167Z" stroke="black" stroke-width="2" stroke-linecap="round" stroke-linejoin="round"/>
<path d="M12.75 17L15.5833 19.8333L21.25 14.1667" stroke="black" stroke-width="2" stroke-linecap="round" stroke-linejoin="round"/>
</svg>
