<svg width="22" height="22" viewBox="0 0 22 22" fill="none" xmlns="http://www.w3.org/2000/svg">
<path d="M13.9701 20.4142H13.8509C9.78089 20.4142 7.81922 18.81 7.48005 15.2167C7.44339 14.8408 7.71839 14.5016 8.10339 14.465C8.47005 14.4283 8.81839 14.7125 8.85505 15.0883C9.12089 17.9666 10.4776 19.0392 13.8601 19.0392H13.9792C17.7101 19.0392 19.0301 17.7192 19.0301 13.9883V8.01165C19.0301 4.28082 17.7101 2.96082 13.9792 2.96082H13.8601C10.4592 2.96082 9.10255 4.05165 8.85505 6.98498C8.80922 7.36082 8.48839 7.64498 8.10339 7.60832C7.71839 7.58082 7.44339 7.24165 7.47089 6.86582C7.78255 3.21748 9.75339 1.58582 13.8509 1.58582H13.9701C18.4709 1.58582 20.3959 3.51082 20.3959 8.01165V13.9883C20.3959 18.4891 18.4709 20.4142 13.9701 20.4142Z" fill="#FF5454"/>
<path d="M13.75 11.6875H3.31836C2.94253 11.6875 2.63086 11.3758 2.63086 11C2.63086 10.6242 2.94253 10.3125 3.31836 10.3125H13.75C14.1259 10.3125 14.4375 10.6242 14.4375 11C14.4375 11.3758 14.1259 11.6875 13.75 11.6875Z" fill="#FF5454"/>
<path d="M5.36249 14.7584C5.18832 14.7584 5.01415 14.6942 4.87665 14.5567L1.80582 11.4859C1.53999 11.2201 1.53999 10.7801 1.80582 10.5142L4.87665 7.44339C5.14249 7.17756 5.58249 7.17756 5.84832 7.44339C6.11415 7.70923 6.11415 8.14923 5.84832 8.41506L3.26332 11.0001L5.84832 13.5851C6.11415 13.8509 6.11415 14.2909 5.84832 14.5567C5.71999 14.6942 5.53665 14.7584 5.36249 14.7584Z" fill="#FF5454"/>
</svg>
