<svg width="22" height="22" viewBox="0 0 22 22" fill="none" xmlns="http://www.w3.org/2000/svg">
<path d="M6.65497 17.3159C6.58164 17.3159 6.50832 17.3067 6.43498 17.2975C5.88498 17.2242 5.41748 16.8758 5.18832 16.3808L4.03331 13.8416C2.19997 12.485 1.14581 10.4592 1.14581 8.25918C1.14581 4.34501 4.53748 1.15501 8.70831 1.15501C11.6508 1.15501 14.3366 2.76834 15.5558 5.27084C16.0233 6.19667 16.2708 7.20501 16.2708 8.25918C16.2708 12.0725 13.0533 15.1983 9.03831 15.3542L7.88332 16.7475C7.57165 17.105 7.12247 17.3159 6.65497 17.3159ZM8.70831 2.52084C5.29831 2.52084 2.52081 5.0875 2.52081 8.25C2.52081 10.0558 3.41914 11.7242 4.97747 12.8242C5.07831 12.8975 5.16081 12.9892 5.20664 13.0992L6.43498 15.8033C6.48082 15.9042 6.57248 15.9317 6.61831 15.9317C6.66415 15.9408 6.75582 15.9317 6.81998 15.8583L8.17664 14.2267C8.30498 14.0709 8.49748 13.9792 8.70831 13.9792C12.1183 13.9792 14.8958 11.4125 14.8958 8.25C14.8958 7.41584 14.7033 6.61831 14.3275 5.87581C13.3375 3.83165 11.1283 2.52084 8.70831 2.52084Z" fill="#292D32"/>
<path d="M15.3451 20.8541C14.8684 20.8541 14.4284 20.6433 14.1167 20.2766L12.9617 18.8925C10.7434 18.8008 8.65338 17.7833 7.31505 16.1333C7.10422 15.8766 7.11339 15.51 7.32423 15.2625L8.17672 14.2358C8.30505 14.08 8.49755 13.9883 8.70839 13.9883C12.1184 13.9883 14.8959 11.4217 14.8959 8.25916C14.8959 7.42499 14.7034 6.62747 14.3276 5.88497C14.2084 5.64663 14.2359 5.36248 14.4009 5.15164C14.5659 4.94081 14.8409 4.84913 15.0976 4.90413C18.4892 5.68329 20.8542 8.51581 20.8542 11.7975C20.8542 13.9975 19.8001 16.0233 17.9667 17.38L16.8117 19.9191C16.5734 20.4325 16.1059 20.7808 15.5467 20.845C15.4826 20.8541 15.4092 20.8541 15.3451 20.8541ZM8.76338 15.675C9.90922 16.8391 11.5592 17.5175 13.2917 17.5175C13.4934 17.5175 13.6859 17.6092 13.8234 17.765L15.1801 19.3966C15.2442 19.4791 15.3267 19.4883 15.3817 19.4791C15.4184 19.4791 15.5192 19.4516 15.5742 19.3416L16.8026 16.6375C16.8576 16.5275 16.9309 16.4266 17.0317 16.3625C18.5901 15.2625 19.4884 13.5941 19.4884 11.7883C19.4884 9.5883 18.1409 7.63584 16.0876 6.67334C16.2159 7.18668 16.28 7.70915 16.28 8.24998C16.28 12.0633 13.0625 15.1891 9.04755 15.345L8.76338 15.675Z" fill="#292D32"/>
<path d="M11 8.9375H6.41669C6.04085 8.9375 5.72919 8.62583 5.72919 8.25C5.72919 7.87417 6.04085 7.5625 6.41669 7.5625H11C11.3759 7.5625 11.6875 7.87417 11.6875 8.25C11.6875 8.62583 11.3759 8.9375 11 8.9375Z" fill="#292D32"/>
</svg>
