<svg width="12" height="20" viewBox="0 0 12 20" fill="none" xmlns="http://www.w3.org/2000/svg">
<path d="M8.9165 5.78075C9.80338 6.29279 10.5398 7.02928 11.0518 7.91619C11.5638 8.8031 11.8333 9.80917 11.8332 10.8332V17.4999H8.35817C8.186 17.9879 7.86672 18.4104 7.44434 18.7093C7.02195 19.0081 6.51727 19.1686 5.99984 19.1686C5.48241 19.1686 4.97772 19.0081 4.55534 18.7093C4.13295 18.4104 3.81367 17.9879 3.6415 17.4999H0.166504V10.8332C0.166384 9.80917 0.435863 8.8031 0.947851 7.91619C1.45984 7.02928 2.19629 6.29279 3.08317 5.78075C2.94645 5.53471 2.84145 5.27234 2.77067 4.99991H0.166504V3.33325H2.7715C2.95687 2.61805 3.37448 1.98465 3.95879 1.53248C4.54309 1.0803 5.26101 0.834961 5.99984 0.834961C6.73867 0.834961 7.45658 1.0803 8.04089 1.53248C8.62519 1.98465 9.04281 2.61805 9.22817 3.33325H11.8332V4.99991H9.22817C9.15595 5.27603 9.05234 5.5363 8.91734 5.78075M5.99984 11.6666C5.77882 11.6666 5.56686 11.7544 5.41058 11.9107C5.2543 12.0669 5.1665 12.2789 5.1665 12.4999V16.6666C5.1665 16.8876 5.2543 17.0996 5.41058 17.2558C5.56686 17.4121 5.77882 17.4999 5.99984 17.4999C6.22085 17.4999 6.43281 17.4121 6.58909 17.2558C6.74537 17.0996 6.83317 16.8876 6.83317 16.6666V12.4999C6.83317 12.2789 6.74537 12.0669 6.58909 11.9107C6.43281 11.7544 6.22085 11.6666 5.99984 11.6666ZM5.99984 5.83325C6.44186 5.83325 6.86579 5.65765 7.17835 5.34509C7.49091 5.03253 7.6665 4.60861 7.6665 4.16658C7.6665 3.72455 7.49091 3.30063 7.17835 2.98807C6.86579 2.67551 6.44186 2.49991 5.99984 2.49991C5.55781 2.49991 5.13389 2.67551 4.82133 2.98807C4.50877 3.30063 4.33317 3.72455 4.33317 4.16658C4.33317 4.60861 4.50877 5.03253 4.82133 5.34509C5.13389 5.65765 5.55781 5.83325 5.99984 5.83325Z" fill="#808080"/>
</svg>
