<svg width="18" height="18" viewBox="0 0 18 18" fill="none" xmlns="http://www.w3.org/2000/svg">
<path opacity="0.5" d="M0.666504 9.00008C0.666504 10.6483 1.15525 12.2594 2.07092 13.6298C2.9866 15.0002 4.28809 16.0683 5.81081 16.6991C7.33353 17.3298 9.00908 17.4948 10.6256 17.1733C12.2421 16.8517 13.727 16.0581 14.8924 14.8926C16.0578 13.7272 16.8515 12.2423 17.173 10.6258C17.4946 9.00933 17.3296 7.33377 16.6988 5.81105C16.0681 4.28834 15 2.98685 13.6296 2.07117C12.2592 1.15549 10.648 0.666748 8.99984 0.666748C7.90549 0.666748 6.82186 0.882296 5.81081 1.30109C4.79976 1.71987 3.8811 2.3337 3.10728 3.10752C1.54448 4.67033 0.666504 6.78994 0.666504 9.00008ZM8.1665 4.83342C8.1665 4.6124 8.2543 4.40044 8.41058 4.24416C8.56686 4.08788 8.77882 4.00008 8.99984 4.00008C9.22085 4.00008 9.43281 4.08788 9.58909 4.24416C9.74537 4.40044 9.83317 4.6124 9.83317 4.83342V8.51841L11.5815 9.52841C11.7713 9.63971 11.9095 9.82157 11.9657 10.0343C12.0219 10.2471 11.9918 10.4734 11.8817 10.664C11.7717 10.8546 11.5908 10.9939 11.3784 11.0515C11.166 11.1092 10.9395 11.0805 10.7482 10.9717L8.58317 9.72175C8.45649 9.64861 8.35129 9.54342 8.27815 9.41674C8.20501 9.29006 8.16651 9.14636 8.1665 9.00008V4.83342Z" fill="#6B7280"/>
</svg>
